<svg width="24" height="24" fill="none" xmlns="http://www.w3.org/2000/svg"><g clip-path="url(#a)"><path d="m16.284 8.037-3.851-5.675c-.335-.491-.866-.481-1.182.02l-3.55 5.635c-.316.502-.1.913.48.913h1.041v1.959A1.111 1.111 0 0 0 10.333 12h3.334a1.111 1.111 0 0 0 1.11-1.111V8.93h1.055c.582 0 .786-.402.452-.894zm-12.256 7.06H2.8c-.542 0-.767-.395-.767-.778 0-.395.282-.777.767-.777h4.15c.485 0 .767.382.767.777 0 .383-.226.778-.768.778H5.72v5.66c0 .565-.36.88-.845.88s-.846-.315-.846-.88v-5.66zm3.748 2.458c0-2.345 1.578-4.15 3.879-4.15 2.266 0 3.879 1.862 3.879 4.15 0 2.334-1.567 4.151-3.88 4.151-2.289 0-3.878-1.817-3.878-4.15zm5.998 0c0-1.364-.71-2.594-2.12-2.594-1.409 0-2.12 1.23-2.12 2.594 0 1.376.689 2.594 2.12 2.594 1.433 0 2.12-1.218 2.12-2.594zm2.463-3.135c0-.53.316-.879.88-.879h1.996c1.658 0 2.887 1.082 2.887 2.695 0 1.646-1.274 2.673-2.819 2.673H17.93v1.85c0 .564-.36.88-.845.88s-.846-.316-.846-.88V14.42zm1.693 3h1.15c.71 0 1.16-.519 1.16-1.195 0-.677-.45-1.196-1.16-1.196h-1.15v2.391z" fill="#fff"/></g><defs><clipPath id="a"><path fill="#fff" transform="translate(2 2)" d="M0 0h20v20H0z"/></clipPath></defs></svg>