<svg width="32" height="12" fill="none" xmlns="http://www.w3.org/2000/svg"><path d="M0 0h3.279v11.828H0V0zm14.719 0v11.828h-2.86l-.013-7.986-1.14 7.986H8.66L7.467 4.014l-.013 7.814h-2.86V0h4.242c.113.718.242 1.559.393 2.52l.466 3.003L10.45 0h4.269zm4.584 2.017v7.795c.467 0 .755-.09.863-.268.106-.178.16-.662.16-1.452V3.487c0-.537-.017-.88-.054-1.03a.49.49 0 0 0-.246-.334c-.127-.072-.368-.106-.723-.106zM16.026 0h2.448c1.58 0 2.65.068 3.207.204.557.137.981.362 1.271.672.29.313.471.659.544 1.042.074.383.11 1.133.11 2.253v4.143c0 1.062-.054 1.771-.16 2.129a1.593 1.593 0 0 1-.556.841c-.265.202-.59.343-.98.424-.388.08-.973.12-1.756.12h-4.128V0zm12.827 4.897c0-.5-.035-.825-.103-.979-.069-.153-.201-.23-.402-.23-.195 0-.322.068-.38.2-.057.134-.086.47-.086 1.009v4.166c0 .52.033.852.099.997.064.147.196.218.39.218.2 0 .33-.074.39-.225.06-.151.091-.512.091-1.086v-4.07zM27.882 0v2.816c.26-.286.55-.499.87-.639.322-.14.67-.21 1.045-.21.431 0 .806.064 1.124.19.318.127.56.305.727.533.166.229.267.453.301.671.033.219.051.685.051 1.4v4.364c0 .71-.05 1.24-.154 1.587-.1.348-.34.65-.715.905-.376.255-.821.383-1.337.383-.371 0-.717-.076-1.038-.228a2.72 2.72 0 0 1-.88-.684l-.204.74h-2.937V0h3.147z" fill="#fff"/></svg>