<svg width="158" height="40" fill="none" xmlns="http://www.w3.org/2000/svg"><path d="m5.511 9.678.505 3.197c.95-1.095 2.25-1.998 3.904-2.709 1.684-.71 3.383-1.065 5.098-1.065 5.204 0 7.807 3.907 7.807 11.72 0 4.203-.704 7.148-2.113 8.835-1.377 1.657-3.551 2.486-6.521 2.486-3.062 0-5.588-.71-7.578-2.13.153 1.508.2 3.077.138 4.705V40H0V9.678h5.511zm1.24 6.66V26.37c2.388.592 4.103.888 5.144.888 1.5 0 2.526-.415 3.077-1.244.581-.828.872-2.56.872-5.194 0-2.575-.26-4.306-.78-5.194-.52-.917-1.44-1.376-2.756-1.376-1.5 0-3.353.695-5.557 2.086zM30.59 0h3.032c1.316 0 1.975.636 1.975 1.909v2.397c0 1.273-.659 1.91-1.975 1.91H30.59c-1.317 0-1.975-.637-1.975-1.91V1.91C28.616.636 29.274 0 30.59 0zm4.915 31.565h-6.751V9.678h6.75v21.887zM52.582 22.375h-.275l-5.374 9.19h-6.98l6.98-11.232-6.475-10.655h6.935l4.822 8.435h.46l4.821-8.435h6.935l-6.475 10.655 6.98 11.232h-6.98l-5.374-9.19z" fill="#7B61FF"/><path d="M83.671 22.82h-8.175c.215 1.597.704 2.678 1.47 3.24.796.533 2.097.799 3.904.799 2.418 0 5.235-.163 8.45-.488l.643 4.084c-2.358 1.095-5.65 1.643-9.874 1.643-4.256 0-7.287-.888-9.093-2.664-1.807-1.776-2.71-4.706-2.71-8.79 0-4.292.873-7.296 2.618-9.012 1.776-1.717 4.745-2.575 8.91-2.575 3.765 0 6.49.636 8.174 1.909 1.684 1.243 2.541 3.152 2.572 5.727 0 2.042-.551 3.58-1.654 4.617-1.071 1.006-2.816 1.51-5.235 1.51zm-8.313-3.952h6.43c.827 0 1.378-.192 1.653-.577.306-.385.46-.947.46-1.687 0-1.036-.276-1.746-.827-2.131-.551-.415-1.561-.622-3.031-.622-1.745 0-2.94.34-3.582 1.021-.643.652-1.01 1.983-1.102 3.996zM101.401 9.678l.459 3.197c2.878-2.546 5.756-3.818 8.634-3.818 3.062 0 5.006 1.184 5.833 3.551 2.663-2.367 5.419-3.551 8.266-3.551 2.051 0 3.613.518 4.685 1.553 1.071 1.036 1.607 2.546 1.607 4.529v16.426h-6.751V17.18c0-.947-.169-1.613-.505-1.998-.337-.385-.965-.577-1.883-.577-.735 0-1.439.133-2.113.4-.673.266-1.653.784-2.939 1.553v15.006h-6.521V17.18c0-.947-.199-1.613-.597-1.998-.368-.385-.98-.577-1.838-.577-1.194 0-2.862.636-5.005 1.909v15.05h-6.751V9.678h5.419zM137.931 14.562l-.643-4.44c4.072-.71 8.006-1.065 11.802-1.065 3.062 0 5.313.606 6.752 1.82 1.439 1.184 2.158 3.255 2.158 6.215v14.473h-5.373l-.689-3.33c-2.266 2.575-5.052 3.863-8.359 3.863-2.173 0-3.949-.548-5.327-1.643-1.378-1.125-2.067-2.678-2.067-4.661v-2.22c0-1.746.613-3.108 1.837-4.085 1.225-.976 2.924-1.465 5.098-1.465h8.083v-.976c-.031-1.125-.306-1.88-.827-2.264-.489-.385-1.454-.578-2.893-.578-2.511 0-5.695.119-9.552.356zm4.96 9.5v.844c0 1.51.887 2.264 2.663 2.264 1.837 0 3.72-.71 5.649-2.131v-3.063h-6.108c-1.47.03-2.204.725-2.204 2.086z" fill="#fff"/></svg>