<svg width="24" height="24" fill="none" xmlns="http://www.w3.org/2000/svg"><path fill-rule="evenodd" clip-rule="evenodd" d="M19.226 8.73c.19.465.642.769 1.144.77.68.005 1.23.56 1.23 1.24v2.14a1.24 1.24 0 0 1-1.24 1.24 1.24 1.24 0 0 0-.87 2.12 1.26 1.26 0 0 1 0 1.76l-1.5 1.5a1.26 1.26 0 0 1-1.76 0 1.18 1.18 0 0 0-.87-.37 1.24 1.24 0 0 0-1.25 1.24 1.24 1.24 0 0 1-1.24 1.24h-2.14a1.24 1.24 0 0 1-1.24-1.24 1.24 1.24 0 0 0-1.25-1.24 1.18 1.18 0 0 0-.87.37 1.26 1.26 0 0 1-1.76 0L4.11 18a1.26 1.26 0 0 1 0-1.76 1.24 1.24 0 0 0-.87-2.12A1.24 1.24 0 0 1 2 12.88v-2.14c0-.685.555-1.24 1.24-1.24a1.24 1.24 0 0 0 .87-2.12 1.26 1.26 0 0 1 0-1.76l1.5-1.5a1.26 1.26 0 0 1 1.76 0c.226.24.541.373.87.37a1.24 1.24 0 0 0 1.25-1.25c0-.685.555-1.24 1.24-1.24h2.15c.685 0 1.24.555 1.24 1.24a1.24 1.24 0 0 0 1.25 1.25c.329.003.644-.13.87-.37a1.26 1.26 0 0 1 1.76 0l1.5 1.5a1.26 1.26 0 0 1 0 1.76 1.24 1.24 0 0 0-.274 1.35zM8.34 11.81a3.46 3.46 0 1 1 6.92 0 3.46 3.46 0 0 1-6.92 0z" fill="#80858B"/></svg>